HIERARCHY
ROOT mixamorig:Hips
{
	OFFSET 0.000000 201.639420 0.000000
	CHANNELS 6 Xposition Yposition Zposition Xrotation Yrotation Zrotation
	JOINT mixamorig:Spine
	{
		OFFSET 0.006200 19.524994 -2.481800
		CHANNELS 3 Xrotation Yrotation Zrotation
		JOINT mixamorig:Spine1
		{
			OFFSET -0.000900 22.835007 -2.825400
			CHANNELS 3 Xrotation Yrotation Zrotation
			JOINT mixamorig:Spine2
			{
				OFFSET -0.020600 26.552490 -3.193300
				CHANNELS 3 Xrotation Yrotation Zrotation
				JOINT mixamorig:Neck
				{
					OFFSET -0.060000 30.701813 1.352200
					CHANNELS 3 Xrotation Yrotation Zrotation
					JOINT mixamorig:Head
					{
						OFFSET -0.087200 22.547607 3.670900
						CHANNELS 3 Xrotation Yrotation Zrotation
						JOINT mixamorig:HeadTop_End
						{
							OFFSET -0.830600 40.355194 7.893500
							CHANNELS 3 Xrotation Yrotation Zrotation
							End Site
							{
								OFFSET 0.000000 30.592346 0.000000
							}
						}
						JOINT mixamorig:RightEye
						{
							OFFSET -6.302100 18.118591 16.197100
							CHANNELS 3 Xrotation Yrotation Zrotation
							End Site
							{
								OFFSET 0.000000 30.592346 0.000000
							}
						}
						JOINT mixamorig:LeftEye
						{
							OFFSET 6.741500 18.382690 16.401899
							CHANNELS 3 Xrotation Yrotation Zrotation
							End Site
							{
								OFFSET 0.000000 30.592346 0.000000
							}
						}
					}
				}
				JOINT mixamorig:LeftShoulder
				{
					OFFSET 11.924900 18.230499 1.425400
					CHANNELS 3 Xrotation Yrotation Zrotation
					JOINT mixamorig:LeftArm
					{
						OFFSET 25.435989 -0.697632 -5.229300
						CHANNELS 3 Xrotation Yrotation Zrotation
						JOINT mixamorig:LeftForeArm
						{
							OFFSET 54.684776 0.000000 0.000000
							CHANNELS 3 Xrotation Yrotation Zrotation
							JOINT mixamorig:LeftHand
							{
								OFFSET 55.098175 0.000000 0.000000
								CHANNELS 3 Xrotation Yrotation Zrotation
								JOINT mixamorig:LeftHandMiddle1
								{
									OFFSET 23.369751 0.000000 0.000000
									CHANNELS 3 Xrotation Yrotation Zrotation
									JOINT mixamorig:LeftHandMiddle2
									{
										OFFSET 6.378677 0.000000 0.000000
										CHANNELS 3 Xrotation Yrotation Zrotation
										JOINT mixamorig:LeftHandMiddle3
										{
											OFFSET 6.148331 0.000000 0.000000
											CHANNELS 3 Xrotation Yrotation Zrotation
											JOINT mixamorig:LeftHandMiddle4
											{
												OFFSET 6.582504 0.000000 0.000000
												CHANNELS 3 Xrotation Yrotation Zrotation
												End Site
												{
													OFFSET -1.168900 6.395691 1.028606
												}
											}
										}
									}
								}
								JOINT mixamorig:LeftHandThumb1
								{
									OFFSET 7.235672 -3.848206 5.434273
									CHANNELS 3 Xrotation Yrotation Zrotation
									JOINT mixamorig:LeftHandThumb2
									{
										OFFSET 6.568451 -3.792297 3.792300
										CHANNELS 3 Xrotation Yrotation Zrotation
										JOINT mixamorig:LeftHandThumb3
										{
											OFFSET 6.063080 -3.500519 3.500518
											CHANNELS 3 Xrotation Yrotation Zrotation
											JOINT mixamorig:LeftHandThumb4
											{
												OFFSET 4.793182 -2.767334 2.767349
												CHANNELS 3 Xrotation Yrotation Zrotation
												End Site
												{
													OFFSET 0.101639 6.054260 1.275483
												}
											}
										}
									}
								}
								JOINT mixamorig:LeftHandIndex1
								{
									OFFSET 23.101074 -0.309540 4.992809
									CHANNELS 3 Xrotation Yrotation Zrotation
									JOINT mixamorig:LeftHandIndex2
									{
										OFFSET 6.226883 0.000000 0.000000
										CHANNELS 3 Xrotation Yrotation Zrotation
										JOINT mixamorig:LeftHandIndex3
										{
											OFFSET 6.094330 0.000000 0.000000
											CHANNELS 3 Xrotation Yrotation Zrotation
											JOINT mixamorig:LeftHandIndex4
											{
												OFFSET 5.482605 0.000000 0.000000
												CHANNELS 3 Xrotation Yrotation Zrotation
												End Site
												{
													OFFSET -1.427902 5.233032 0.797164
												}
											}
										}
									}
								}
								JOINT mixamorig:LeftHandRing1
								{
									OFFSET 22.299240 0.021149 -3.964172
									CHANNELS 3 Xrotation Yrotation Zrotation
									JOINT mixamorig:LeftHandRing2
									{
										OFFSET 6.321869 0.000000 0.000000
										CHANNELS 3 Xrotation Yrotation Zrotation
										JOINT mixamorig:LeftHandRing3
										{
											OFFSET 5.899796 0.000000 0.000000
											CHANNELS 3 Xrotation Yrotation Zrotation
											JOINT mixamorig:LeftHandRing4
											{
												OFFSET 6.517899 0.000000 0.000000
												CHANNELS 3 Xrotation Yrotation Zrotation
												End Site
												{
													OFFSET -1.637299 6.232208 0.980890
												}
											}
										}
									}
								}
								JOINT mixamorig:LeftHandPinky1
								{
									OFFSET 20.463791 -0.302338 -8.562233
									CHANNELS 3 Xrotation Yrotation Zrotation
									JOINT mixamorig:LeftHandPinky2
									{
										OFFSET 6.908646 0.000000 0.000000
										CHANNELS 3 Xrotation Yrotation Zrotation
										JOINT mixamorig:LeftHandPinky3
										{
											OFFSET 4.622849 0.000000 0.000000
											CHANNELS 3 Xrotation Yrotation Zrotation
											JOINT mixamorig:LeftHandPinky4
											{
												OFFSET 5.216080 0.000000 0.000000
												CHANNELS 3 Xrotation Yrotation Zrotation
												End Site
												{
													OFFSET -0.606308 5.116241 0.814926
												}
											}
										}
									}
								}
							}
						}
					}
				}
				JOINT mixamorig:RightShoulder
				{
					OFFSET -12.001300 18.284088 1.348900
					CHANNELS 3 Xrotation Yrotation Zrotation
					JOINT mixamorig:RightArm
					{
						OFFSET -25.308500 -0.751312 -5.164599
						CHANNELS 3 Xrotation Yrotation Zrotation
						JOINT mixamorig:RightForeArm
						{
							OFFSET -54.684429 0.000000 0.000000
							CHANNELS 3 Xrotation Yrotation Zrotation
							JOINT mixamorig:RightHand
							{
								OFFSET -55.150291 0.000000 0.000000
								CHANNELS 3 Xrotation Yrotation Zrotation
								JOINT mixamorig:RightHandMiddle1
								{
									OFFSET -23.317566 0.000000 0.000000
									CHANNELS 3 Xrotation Yrotation Zrotation
									JOINT mixamorig:RightHandMiddle2
									{
										OFFSET -6.378403 0.000000 0.000000
										CHANNELS 3 Xrotation Yrotation Zrotation
										JOINT mixamorig:RightHandMiddle3
										{
											OFFSET -6.148193 0.000000 0.000000
											CHANNELS 3 Xrotation Yrotation Zrotation
											JOINT mixamorig:RightHandMiddle4
											{
												OFFSET -6.583389 0.000000 0.000000
												CHANNELS 3 Xrotation Yrotation Zrotation
												End Site
												{
													OFFSET 1.171692 6.395905 1.029786
												}
											}
										}
									}
								}
								JOINT mixamorig:RightHandThumb1
								{
									OFFSET -7.190521 -3.860474 5.435846
									CHANNELS 3 Xrotation Yrotation Zrotation
									JOINT mixamorig:RightHandThumb2
									{
										OFFSET -6.567429 -3.791718 3.791708
										CHANNELS 3 Xrotation Yrotation Zrotation
										JOINT mixamorig:RightHandThumb3
										{
											OFFSET -6.062469 -3.500153 3.500166
											CHANNELS 3 Xrotation Yrotation Zrotation
											JOINT mixamorig:RightHandThumb4
											{
												OFFSET -4.792618 -2.767029 2.767022
												CHANNELS 3 Xrotation Yrotation Zrotation
												End Site
												{
													OFFSET -0.100327 6.053253 1.276754
												}
											}
										}
									}
								}
								JOINT mixamorig:RightHandIndex1
								{
									OFFSET -23.048981 -0.310791 4.992554
									CHANNELS 3 Xrotation Yrotation Zrotation
									JOINT mixamorig:RightHandIndex2
									{
										OFFSET -6.227539 0.000000 0.000000
										CHANNELS 3 Xrotation Yrotation Zrotation
										JOINT mixamorig:RightHandIndex3
										{
											OFFSET -6.095047 0.000000 0.000000
											CHANNELS 3 Xrotation Yrotation Zrotation
											JOINT mixamorig:RightHandIndex4
											{
												OFFSET -5.484772 0.000000 0.000000
												CHANNELS 3 Xrotation Yrotation Zrotation
												End Site
												{
													OFFSET 1.420593 5.237305 0.797056
												}
											}
										}
									}
								}
								JOINT mixamorig:RightHandRing1
								{
									OFFSET -22.246323 0.020569 -3.963762
									CHANNELS 3 Xrotation Yrotation Zrotation
									JOINT mixamorig:RightHandRing2
									{
										OFFSET -6.322128 0.000000 0.000000
										CHANNELS 3 Xrotation Yrotation Zrotation
										JOINT mixamorig:RightHandRing3
										{
											OFFSET -5.900024 0.000000 0.000000
											CHANNELS 3 Xrotation Yrotation Zrotation
											JOINT mixamorig:RightHandRing4
											{
												OFFSET -6.518356 0.000000 0.000000
												CHANNELS 3 Xrotation Yrotation Zrotation
												End Site
												{
													OFFSET 1.636398 6.232697 0.982186
												}
											}
										}
									}
								}
								JOINT mixamorig:RightHandPinky1
								{
									OFFSET -20.411011 -0.303314 -8.561701
									CHANNELS 3 Xrotation Yrotation Zrotation
									JOINT mixamorig:RightHandPinky2
									{
										OFFSET -6.907349 0.000000 0.000000
										CHANNELS 3 Xrotation Yrotation Zrotation
										JOINT mixamorig:RightHandPinky3
										{
											OFFSET -4.623840 0.000000 0.000000
											CHANNELS 3 Xrotation Yrotation Zrotation
											JOINT mixamorig:RightHandPinky4
											{
												OFFSET -5.218353 0.000000 0.000000
												CHANNELS 3 Xrotation Yrotation Zrotation
												End Site
												{
													OFFSET 0.602097 5.118835 0.816273
												}
											}
										}
									}
								}
							}
						}
					}
				}
			}
		}
	}
	JOINT mixamorig:LeftUpLeg
	{
		OFFSET 18.168400 -13.561905 -0.039000
		CHANNELS 3 Xrotation Yrotation Zrotation
		JOINT mixamorig:LeftLeg
		{
			OFFSET 0.577358 -80.825211 -3.695000
			CHANNELS 3 Xrotation Yrotation Zrotation
			JOINT mixamorig:LeftFoot
			{
				OFFSET -0.577356 -83.370262 -6.520700
				CHANNELS 3 Xrotation Yrotation Zrotation
				JOINT mixamorig:LeftToeBase
				{
					OFFSET 0.750401 -20.798306 25.135401
					CHANNELS 3 Xrotation Yrotation Zrotation
					JOINT mixamorig:LeftToe_End
					{
						OFFSET -0.000500 0.001200 19.917799
						CHANNELS 3 Xrotation Yrotation Zrotation
						End Site
						{
							OFFSET 0.000000 19.917805 0.000000
						}
					}
				}
			}
		}
	}
	JOINT mixamorig:RightUpLeg
	{
		OFFSET -18.162500 -13.585098 -0.041000
		CHANNELS 3 Xrotation Yrotation Zrotation
		JOINT mixamorig:RightLeg
		{
			OFFSET -0.595024 -80.945297 -3.631900
			CHANNELS 3 Xrotation Yrotation Zrotation
			JOINT mixamorig:RightFoot
			{
				OFFSET 0.595024 -83.218193 -6.561200
				CHANNELS 3 Xrotation Yrotation Zrotation
				JOINT mixamorig:RightToeBase
				{
					OFFSET -0.753601 -20.807106 25.115000
					CHANNELS 3 Xrotation Yrotation Zrotation
					JOINT mixamorig:RightToe_End
					{
						OFFSET 0.000299 0.001700 19.918200
						CHANNELS 3 Xrotation Yrotation Zrotation
						End Site
						{
							OFFSET 0.000000 19.918203 0.000000
						}
					}
				}
			}
		}
	}
}
MOTION
Frames: 4
Frame Time: 0.033333
-2.875950 175.761139 485.589630 6.238565 -24.597642 3.474131 6.540546 -0.062333 -0.743398 13.081562 0.126262 -1.288449 13.081563 0.126265 -1.288448 -3.850725 6.814698 -1.684922 -15.407619 13.857994 14.013069 0.000000 -0.000000 -0.000001 0.000000 -0.000000 -0.000001 0.000000 -0.000000 -0.000001 -26.465043 -36.342228 13.767054 -60.329046 -0.351493 -47.239330 -14.897425 -42.631838 -12.438656 -105.310193 -0.082745 12.743575 -0.348763 -1.564687 -62.980368 -6.176441 -6.585790 -60.287163 -0.000001 -0.000013 -0.000000 -0.000000 0.000001 0.000003 3.281253 2.750289 -4.691265 1.252892 4.302594 1.889376 -0.000002 0.000010 -0.000006 0.000000 -0.000003 0.000001 7.558171 5.560815 -33.411537 -14.915902 -6.763793 -80.642657 0.000002 -0.000000 0.000012 0.000000 -0.000000 -0.000003 -5.285981 4.625072 -73.485705 0.758390 -3.524019 -58.283602 -0.000001 0.000008 0.000009 0.000000 -0.000000 -0.000003 -16.248040 1.427283 -86.151491 2.610416 -7.578004 -55.785505 0.000007 0.000008 0.000007 0.000000 0.000003 0.000000 14.273363 23.753690 -22.794057 -58.940352 13.046240 54.194385 -2.347688 123.131618 -2.526895 -37.764406 -37.634950 -30.234618 2.849709 6.518848 50.443461 -9.381543 -1.097150 112.544428 0.000004 -0.000004 0.000002 0.000001 -0.000001 -0.000002 15.407466 -4.518692 17.011010 11.550413 4.015388 -20.411400 0.000010 0.000004 -0.000007 -0.000006 0.000000 -0.000001 1.722252 -0.092740 4.770190 -1.775532 -0.152050 23.231288 -0.000010 -0.000002 -0.000006 0.000001 -0.000001 -0.000005 -9.301080 -5.405402 57.439610 -5.096913 8.919855 99.469541 0.000003 0.000000 0.000004 -0.000000 0.000001 0.000001 -13.999128 0.160997 73.191515 -4.216925 14.456133 83.414935 0.000000 -0.000002 -0.000000 0.000000 0.000001 0.000002 -57.362169 15.694858 17.608325 28.860124 5.495031 -0.867922 -25.015838 -11.261094 -15.959743 -8.741036 -0.027127 -0.071473 -0.000002 0.000000 -0.000001 -6.148740 22.793111 -3.971697 59.397190 -6.567588 1.708241 7.054890 11.883935 5.866299 -39.164298 1.312336 -6.415260 0.000002 0.000000 -0.000000 
-2.648253 172.684280 502.927917 5.288576 -23.928448 2.297996 6.664879 -0.012363 -0.704039 13.329727 0.043402 -0.993659 13.329730 0.043401 -0.993655 -3.928501 6.863296 -1.106880 -15.366846 13.896621 13.948027 -0.000003 0.000000 0.000001 -0.000003 0.000000 0.000001 -0.000003 0.000000 0.000001 -26.557217 -37.172499 13.991281 -60.631535 -0.792111 -46.689882 -14.698781 -42.095723 -12.203885 -104.825782 0.344261 13.481664 -0.348768 -1.564689 -62.980368 -6.176424 -6.585791 -60.287177 0.000002 -0.000013 0.000003 -0.000001 0.000001 0.000001 3.277669 2.709698 -4.683792 1.252892 4.302589 1.889372 0.000002 0.000003 -0.000005 0.000001 0.000000 0.000001 7.558178 5.560823 -33.411547 -14.915895 -6.763792 -80.642650 0.000002 0.000002 0.000009 -0.000003 0.000001 0.000001 -5.285971 4.625073 -73.485684 0.758381 -3.524006 -58.283575 -0.000001 0.000008 0.000012 0.000000 0.000001 -0.000003 -16.248033 1.427280 -86.151498 2.610427 -7.578001 -55.785505 0.000002 0.000006 0.000011 -0.000002 -0.000001 -0.000001 14.240349 23.544642 -22.622387 -59.543424 12.724088 54.601437 -2.389029 123.066321 -2.475973 -37.636716 -37.589055 -30.309176 3.167136 6.224128 49.803472 -9.388605 -1.023554 111.825517 0.000004 -0.000005 0.000002 0.000001 -0.000000 -0.000002 15.407466 -4.518693 17.011011 11.550418 4.015388 -20.411400 0.000005 0.000002 -0.000008 0.000001 0.000000 0.000001 1.679684 0.214030 4.766683 -1.773834 -0.126597 22.863450 -0.000009 0.000001 -0.000008 -0.000000 0.000000 0.000000 -9.059047 -5.518535 56.632179 -4.973731 8.903097 98.618684 0.000002 0.000001 0.000005 -0.000002 0.000001 0.000005 -13.546801 0.081591 72.357549 -4.024958 14.365913 82.471003 0.000003 -0.000001 0.000001 0.000003 0.000000 0.000002 -62.305942 13.249328 18.557460 45.127244 7.548063 -1.228060 -15.006716 -18.578304 -5.432400 -9.546915 -0.025919 -0.071656 0.000001 -0.000000 0.000001 -11.203368 26.459921 -0.515973 70.006529 -5.029010 2.087883 14.115425 15.685468 3.805890 -9.590601 -0.010584 -2.908738 -0.000001 0.000001 -0.000000 
-2.310934 169.438141 519.549561 4.158758 -23.175496 1.252389 6.854104 0.005359 -0.654481 13.708045 -0.097266 -0.699103 13.708058 -0.097276 -0.699104 -4.107196 6.898666 -0.609179 -15.367386 13.980940 13.728006 -0.000002 0.000000 0.000001 -0.000002 0.000000 0.000001 -0.000002 0.000000 0.000001 -26.477437 -37.858140 14.223953 -61.334696 -1.431477 -46.179817 -14.481155 -41.459016 -11.930555 -104.266943 0.782628 14.271445 -0.348766 -1.564701 -62.980375 -6.176457 -6.585795 -60.287177 -0.000002 -0.000010 -0.000002 0.000001 0.000002 0.000003 3.416678 3.403270 -4.920614 1.252891 4.302587 1.889373 -0.000001 0.000009 -0.000005 0.000000 0.000002 -0.000001 7.558173 5.560822 -33.411547 -14.915885 -6.763799 -80.642643 -0.000001 -0.000000 0.000010 0.000000 -0.000001 0.000001 -5.285979 4.625069 -73.485718 0.758392 -3.524003 -58.283568 -0.000001 0.000010 0.000010 0.000002 -0.000001 0.000002 -16.248035 1.427267 -86.151498 2.610398 -7.577999 -55.785536 0.000005 0.000009 0.000009 -0.000004 -0.000002 0.000003 14.212716 23.250408 -22.575925 -60.387608 12.258695 55.271926 -2.441725 122.994946 -2.411031 -37.159350 -37.731970 -30.118494 3.411157 5.989445 49.304796 -9.391634 -0.966110 111.263604 0.000006 -0.000004 0.000001 0.000002 -0.000001 -0.000001 15.407464 -4.518693 17.011010 11.550415 4.015386 -20.411399 0.000004 0.000002 -0.000008 0.000002 0.000000 -0.000000 1.700889 0.078465 4.768177 -1.775814 -0.108135 22.575852 -0.000009 -0.000001 -0.000007 0.000002 -0.000001 -0.000002 -8.869074 -5.606692 55.936015 -4.868336 8.887261 97.887566 0.000003 -0.000001 0.000008 -0.000000 -0.000001 0.000003 -13.164766 0.025552 71.586851 -3.849864 14.281273 81.608500 0.000004 -0.000003 0.000001 0.000001 0.000000 -0.000000 -62.004765 11.970519 18.463161 51.083760 7.580577 -1.410895 4.614921 -16.936328 2.239297 -7.333402 -0.024149 -0.070352 0.000001 0.000001 -0.000000 -18.933923 28.263231 3.553909 79.599933 -4.583103 2.345750 10.522417 15.677325 4.264278 -2.299986 -0.170572 -0.793560 0.000000 0.000001 0.000000 
-1.811876 167.907562 536.045227 3.174206 -22.250639 0.062563 7.045954 -0.045474 -0.465950 14.092668 -0.270922 -0.255911 14.092674 -0.270923 -0.255910 -4.362885 6.923838 -0.215715 -15.389068 14.092044 13.414279 -0.000002 0.000001 0.000002 -0.000002 0.000001 0.000002 -0.000002 0.000001 0.000002 -26.186686 -38.306044 14.415961 -62.123316 -1.781637 -46.006232 -14.324131 -40.958899 -11.725383 -103.797053 1.113566 14.695953 -0.348766 -1.564690 -62.980389 -6.176447 -6.585799 -60.287170 -0.000002 -0.000013 0.000004 0.000002 0.000001 -0.000002 3.511637 3.833383 -5.044276 1.252890 4.302590 1.889375 0.000000 0.000003 -0.000004 0.000001 -0.000001 -0.000001 7.558173 5.560834 -33.411537 -14.915893 -6.763805 -80.642643 0.000001 0.000000 0.000007 -0.000006 0.000001 -0.000000 -5.285990 4.625064 -73.485712 0.758382 -3.523999 -58.283596 0.000003 0.000010 0.000010 -0.000001 -0.000001 -0.000003 -16.248040 1.427282 -86.151478 2.610434 -7.577999 -55.785509 0.000006 0.000010 0.000008 -0.000001 -0.000000 -0.000003 14.188772 22.861922 -22.643438 -60.942219 11.789498 55.974739 -2.499950 123.016338 -2.338146 -36.692295 -37.991455 -29.901834 3.570548 5.837472 48.980653 -9.396271 -0.929837 110.897588 0.000006 -0.000004 -0.000001 0.000001 -0.000001 0.000001 15.407466 -4.518692 17.011013 11.550420 4.015388 -20.411402 0.000007 0.000002 -0.000010 -0.000002 0.000001 -0.000000 1.749803 -0.258709 4.772203 -1.778808 -0.101672 22.388276 -0.000009 -0.000000 -0.000004 0.000002 0.000000 0.000001 -8.741681 -5.659948 55.389067 -4.786258 8.873934 97.316057 0.000003 0.000004 0.000005 -0.000002 -0.000001 0.000001 -12.872866 0.002930 70.914958 -3.699699 14.206808 80.867705 0.000002 -0.000004 0.000001 -0.000004 -0.000000 -0.000002 -61.355958 10.900179 17.878737 62.784827 6.511856 -1.811565 -7.046713 -16.109858 1.473235 -5.010885 -0.021930 -0.069241 0.000000 0.000000 0.000000 -28.165050 27.212544 7.390003 86.916193 -5.055765 2.471739 1.011354 9.230480 6.708783 -7.687080 0.026055 -1.906370 -0.000000 0.000000 0.000000 
